{
  "accessors": [
    {
      "bufferView": 2,
      "componentType": 5126,
      "count": 62617,
      "max": [
        143.65243530273438,
        92.9117431640625,
        199.07418823242188
      ],
      "min": [
        -143.65243530273438,
        -92.9117431640625,
        -199.07418823242188
      ],
      "type": "VEC3"
    },
    {
      "bufferView": 2,
      "byteOffset": 751404,
      "componentType": 5126,
      "count": 62617,
      "max": [
        0.9999934434890747,
        1.0,
        0.9999971389770508
      ],
      "min": [
        -0.9999922513961792,
        -0.9999949932098389,
        -0.9999977350234985
      ],
      "type": "VEC3"
    },
    {
      "bufferView": 3,
      "componentType": 5126,
      "count": 62617,
      "max": [
        1.0,
        1.0,
        1.0,
        1.0
      ],
      "min": [
        -1.0,
        -1.0,
        -0.9999998211860657,
        -1.0
      ],
      "type": "VEC4"
    },
    {
      "bufferView": 1,
      "componentType": 5126,
      "count": 62617,
      "max": [
        0.9950000047683716,
        0.9837939739227295
      ],
      "min": [
        0.004999999888241291,
        0.004999995231628418
      ],
      "type": "VEC2"
    },
    {
      "bufferView": 0,
      "componentType": 5125,
      "count": 284997,
      "type": "SCALAR"
    },
    {
      "bufferView": 2,
      "byteOffset": 1502808,
      "componentType": 5126,
      "count": 1602,
      "max": [
        37.1038932800293,
        15.664231300354004,
        53.13753890991211
      ],
      "min": [
        -37.1038932800293,
        -15.664231300354004,
        -53.13753890991211
      ],
      "type": "VEC3"
    },
    {
      "bufferView": 2,
      "byteOffset": 1522032,
      "componentType": 5126,
      "count": 1602,
      "max": [
        0.9977459907531738,
        0.9998859167098999,
        0.999550998210907
      ],
      "min": [
        -0.9977173209190369,
        -0.9998886585235596,
        -0.9995514154434204
      ],
      "type": "VEC3"
    },
    {
      "bufferView": 1,
      "byteOffset": 500936,
      "componentType": 5126,
      "count": 1602,
      "max": [
        1.0,
        1.0
      ],
      "min": [
        0.0,
        0.0
      ],
      "type": "VEC2"
    },
    {
      "bufferView": 0,
      "byteOffset": 1139988,
      "componentType": 5125,
      "count": 8496,
      "type": "SCALAR"
    },
    {
      "bufferView": 2,
      "byteOffset": 1541256,
      "componentType": 5126,
      "count": 1493,
      "max": [
        35.57572937011719,
        15.567681312561035,
        53.469139099121094
      ],
      "min": [
        -35.57572937011719,
        -15.567681312561035,
        -53.469139099121094
      ],
      "type": "VEC3"
    },
    {
      "bufferView": 2,
      "byteOffset": 1559172,
      "componentType": 5126,
      "count": 1493,
      "max": [
        0.9882575273513794,
        0.9999777674674988,
        0.997822105884552
      ],
      "min": [
        -0.9882555603981018,
        -0.9999719858169556,
        -0.9978221654891968
      ],
      "type": "VEC3"
    },
    {
      "bufferView": 1,
      "byteOffset": 513752,
      "componentType": 5126,
      "count": 1493,
      "max": [
        1.0,
        1.0
      ],
      "min": [
        0.0,
        0.0
      ],
      "type": "VEC2"
    },
    {
      "bufferView": 0,
      "byteOffset": 1173972,
      "componentType": 5125,
      "count": 7872,
      "type": "SCALAR"
    }
  ],
  "asset": {
    "extras": {
      "author": "nataliedesign (https://sketchfab.com/nataliedesign)",
      "license": "CC-BY-4.0 (http://creativecommons.org/licenses/by/4.0/)",
      "source": "https://sketchfab.com/3d-models/dragon-ball-hover-car-8d85afecc08d43ec8c9f07003e1ccda8",
      "title": "Dragon Ball Hover Car"
    },
    "generator": "Sketchfab-12.67.0",
    "version": "2.0"
  },
  "bufferViews": [
    {
      "buffer": 0,
      "byteLength": 1205460,
      "name": "floatBufferViews",
      "target": 34963
    },
    {
      "buffer": 0,
      "byteLength": 525696,
      "byteOffset": 1205460,
      "byteStride": 8,
      "name": "floatBufferViews",
      "target": 34962
    },
    {
      "buffer": 0,
      "byteLength": 1577088,
      "byteOffset": 1731156,
      "byteStride": 12,
      "name": "floatBufferViews",
      "target": 34962
    },
    {
      "buffer": 0,
      "byteLength": 1001872,
      "byteOffset": 3308244,
      "byteStride": 16,
      "name": "floatBufferViews",
      "target": 34962
    }
  ],
  "buffers": [
    {
      "byteLength": 4310116,
      "uri": "scene.bin"
    }
  ],
  "extensionsUsed": [
    "KHR_materials_clearcoat",
    "KHR_materials_transmission"
  ],
  "images": [
    {
      "uri": "textures/default_baseColor.png"
    },
    {
      "uri": "textures/default_metallicRoughness.png"
    },
    {
      "uri": "textures/default_emissive.jpeg"
    },
    {
      "uri": "textures/default_normal.jpeg"
    },
    {
      "uri": "textures/default_transmission.png"
    }
  ],
  "materials": [
    {
      "alphaMode": "BLEND",
      "doubleSided": true,
      "emissiveFactor": [
        1.0,
        1.0,
        1.0
      ],
      "emissiveTexture": {
        "index": 2
      },
      "extensions": {
        "KHR_materials_clearcoat": {
          "clearcoatFactor": 0.18464176829268292,
          "clearcoatRoughnessFactor": 0.5504954268292683,
          "clearcoatRoughnessTexture": {
            "index": 1
          }
        },
        "KHR_materials_transmission": {
          "transmissionFactor": 1.0,
          "transmissionTexture": {
            "index": 4
          }
        }
      },
      "name": "default",
      "normalTexture": {
        "index": 3
      },
      "pbrMetallicRoughness": {
        "baseColorFactor": [
          1.0,
          0.371815670031149,
          0.001369900545220419,
          1.0
        ],
        "baseColorTexture": {
          "index": 0
        },
        "metallicRoughnessTexture": {
          "index": 1
        }
      }
    },
    {
      "doubleSided": true,
      "name": "Mat.1",
      "pbrMetallicRoughness": {
        "baseColorFactor": [
          0.34,
          0.0,
          0.0,
          1.0
        ],
        "metallicFactor": 0.0,
        "roughnessFactor": 0.9524317154
      }
    },
    {
      "doubleSided": true,
      "name": "material",
      "pbrMetallicRoughness": {
        "baseColorFactor": [
          0.21,
          0.21,
          0.21,
          1.0
        ],
        "metallicFactor": 0.0,
        "roughnessFactor": 0.9524317154
      }
    }
  ],
  "meshes": [
    {
      "name": "Group9366_default_0",
      "primitives": [
        {
          "attributes": {
            "NORMAL": 1,
            "POSITION": 0,
            "TANGENT": 2,
            "TEXCOORD_0": 3
          },
          "indices": 4,
          "material": 0,
          "mode": 4
        }
      ]
    },
    {
      "name": "Sweep_1_Mat.1_0",
      "primitives": [
        {
          "attributes": {
            "NORMAL": 6,
            "POSITION": 5,
            "TEXCOORD_0": 7
          },
          "indices": 8,
          "material": 1,
          "mode": 4
        }
      ]
    },
    {
      "name": "Sweep_Mat_0",
      "primitives": [
        {
          "attributes": {
            "NORMAL": 10,
            "POSITION": 9,
            "TEXCOORD_0": 11
          },
          "indices": 12,
          "material": 2,
          "mode": 4
        }
      ]
    }
  ],
  "nodes": [
    {
      "children": [
        1
      ],
      "matrix": [
        0.01000127475708723,
        0.0,
        0.0,
        0.0,
        0.0,
        2.2207291021841226e-18,
        -0.01000127475708723,
        0.0,
        0.0,
        0.01000127475708723,
        2.2207291021841226e-18,
        0.0,
        0.0,
        0.0,
        0.0,
        1.0
      ],
      "name": "Sketchfab_model"
    },
    {
      "children": [
        2
      ],
      "matrix": [
        1.0,
        0.0,
        0.0,
        0.0,
        0.0,
        0.0,
        1.0,
        0.0,
        0.0,
        -1.0,
        0.0,
        0.0,
        0.0,
        0.0,
        0.0,
        1.0
      ],
      "name": "102e4056c6484b74a1847daf4510febb.fbx"
    },
    {
      "children": [
        3,
        5,
        7,
        9
      ],
      "name": "RootNode"
    },
    {
      "children": [
        4
      ],
      "matrix": [
        0.48699241617963296,
        -0.2677473641342775,
        -0.8313541577346383,
        0.0,
        0.13533202247862125,
        0.9634891535451484,
        -0.23102790890431257,
        0.0,
        0.8628578273825701,
        4.163336342344337e-17,
        0.5054467031494327,
        0.0,
        -305.7349548339844,
        241.56544494628906,
        532.0550537109375,
        1.0
      ],
      "name": "CINEMA_4D_Editor"
    },
    {
      "name": "Object_4"
    },
    {
      "children": [
        6
      ],
      "matrix": [
        1.0,
        0.0,
        0.0,
        0.0,
        0.0,
        1.0,
        0.0,
        0.0,
        0.0,
        0.0,
        1.0,
        0.0,
        0.0,
        103.78315734863281,
        0.0,
        1.0
      ],
      "name": "Group9366"
    },
    {
      "mesh": 0,
      "name": "Group9366_default_0"
    },
    {
      "children": [
        8
      ],
      "matrix": [
        1.0,
        0.0,
        0.0,
        0.0,
        0.0,
        1.0,
        0.0,
        0.0,
        0.0,
        0.0,
        1.0,
        0.0,
        -59.372283935546875,
        122.59500885009766,
        112.26529693603516,
        1.0
      ],
      "name": "Sweep_1"
    },
    {
      "mesh": 1,
      "name": "Sweep_1_Mat.1_0"
    },
    {
      "children": [
        10
      ],
      "matrix": [
        1.0,
        0.0,
        0.0,
        0.0,
        0.0,
        1.0,
        0.0,
        0.0,
        0.0,
        0.0,
        1.0,
        0.0,
        -61.376678466796875,
        123.01293182373047,
        112.28559112548828,
        1.0
      ],
      "name": "Sweep"
    },
    {
      "mesh": 2,
      "name": "Sweep_Mat_0"
    }
  ],
  "samplers": [
    {
      "magFilter": 9729,
      "minFilter": 9987,
      "wrapS": 10497,
      "wrapT": 10497
    }
  ],
  "scene": 0,
  "scenes": [
    {
      "name": "Sketchfab_Scene",
      "nodes": [
        0
      ]
    }
  ],
  "textures": [
    {
      "sampler": 0,
      "source": 0
    },
    {
      "sampler": 0,
      "source": 1
    },
    {
      "sampler": 0,
      "source": 2
    },
    {
      "sampler": 0,
      "source": 3
    },
    {
      "sampler": 0,
      "source": 4
    }
  ]
}
